<svg width="19" height="18" viewBox="0 0 19 18" fill="none" xmlns="http://www.w3.org/2000/svg">
<circle cx="9.36719" cy="9" r="9" fill="url(#paint0_linear_1_1352)"/>
<path d="M9.28719 12.1C8.78052 12.1 8.34385 12.01 7.97719 11.83C7.61052 11.65 7.32719 11.4133 7.12719 11.12C6.93385 10.8267 6.83052 10.5133 6.81719 10.18V10.16C6.81719 10.1067 6.83719 10.0633 6.87719 10.03C6.91719 9.99667 6.96385 9.98 7.01719 9.98H7.55719C7.69719 9.98 7.78719 10.0533 7.82719 10.2C7.92052 10.5533 8.10052 10.8167 8.36719 10.99C8.63385 11.1633 8.94052 11.25 9.28719 11.25C9.73385 11.25 10.1039 11.1167 10.3972 10.85C10.6972 10.5767 10.8472 10.2 10.8472 9.72C10.8472 9.28667 10.6972 8.93667 10.3972 8.67C10.1039 8.40333 9.73385 8.27 9.28719 8.27C9.04719 8.27 8.85385 8.30333 8.70719 8.37C8.56052 8.43 8.41385 8.51667 8.26719 8.63C8.18719 8.69 8.11719 8.73667 8.05719 8.77C8.00385 8.79667 7.94385 8.81 7.87719 8.81H7.35719C7.29719 8.81 7.24385 8.79 7.19719 8.75C7.15052 8.70333 7.13052 8.65 7.13719 8.59L7.45719 5.25C7.46385 5.17 7.48719 5.11 7.52719 5.07C7.57385 5.02333 7.63385 5 7.70719 5H11.1972C11.2639 5 11.3172 5.02333 11.3572 5.07C11.4039 5.11 11.4272 5.16333 11.4272 5.23V5.62C11.4272 5.68667 11.4039 5.74333 11.3572 5.79C11.3172 5.83 11.2639 5.85 11.1972 5.85H8.31719L8.12719 7.82C8.48719 7.59333 8.92052 7.48 9.42719 7.48C9.86719 7.48 10.2705 7.57 10.6372 7.75C11.0105 7.93 11.3039 8.19 11.5172 8.53C11.7372 8.87 11.8472 9.27 11.8472 9.73C11.8472 10.2233 11.7372 10.65 11.5172 11.01C11.3039 11.3633 11.0039 11.6333 10.6172 11.82C10.2305 12.0067 9.78719 12.1 9.28719 12.1Z" fill="#F5F0F1"/>
<defs>
<linearGradient id="paint0_linear_1_1352" x1="9.47307" y1="0" x2="9.47307" y2="18" gradientUnits="userSpaceOnUse">
<stop stop-color="#FF3F58"/>
<stop offset="1" stop-color="#E40C28"/>
</linearGradient>
</defs>
</svg>
