<svg width="711" height="173" viewBox="0 0 711 173" fill="none" xmlns="http://www.w3.org/2000/svg">
<path d="M663.579 114.753C676.72 138.406 689.86 138.406 703 134.463H710.5V173H0V166C6.57007 146.29 19.7103 106.869 32.8505 87.1586C45.9907 67.4482 59.1308 67.4482 72.271 71.3903C85.4112 75.3324 98.5514 83.2165 111.692 91.1006C124.832 98.9848 137.972 106.869 151.112 106.869C164.252 106.869 177.393 98.9848 190.533 83.2165C203.673 67.4482 216.813 43.7958 229.953 31.9696C243.094 20.1434 256.234 20.1434 269.374 35.9116C282.514 51.6799 295.654 83.2165 308.794 87.1586C321.935 91.1006 335.075 67.4482 348.215 43.7958L348.215 43.7955C361.355 20.1432 374.495 -3.50905 387.636 0.433002C400.776 4.37507 413.916 35.9116 427.056 39.8537C440.196 43.7958 453.336 20.1434 466.477 12.2592C479.617 4.37507 492.757 12.2592 505.897 35.9116C519.037 59.5641 532.178 98.9848 545.318 118.695C558.458 138.406 571.598 138.406 584.738 114.753C597.879 91.1006 611.019 43.7958 624.159 43.7958C637.299 43.7958 650.439 91.1006 663.579 114.753Z" fill="url(#paint0_linear_1_863)"/>
<defs>
<linearGradient id="paint0_linear_1_863" x1="355.25" y1="0" x2="355.25" y2="173" gradientUnits="userSpaceOnUse">
<stop stop-color="#FF3F58" stop-opacity="0.08"/>
<stop offset="1" stop-color="#FF3F58" stop-opacity="0"/>
</linearGradient>
</defs>
</svg>
