<svg width="709" height="173" viewBox="0 0 709 173" fill="none" xmlns="http://www.w3.org/2000/svg">
<path d="M694.205 52.235L707.281 38.6954C707.905 38.0485 709 38.4908 709 39.3901V172C709 172.552 708.552 173 708 173H691.311H652.167H606.033H559.2H512.367H466.233H419.4H372.567H326.433H279.6H232.767H186.633H139.8H92.967H46.833H1C0.447693 173 0 172.552 0 172V70.3256C0 69.2806 1.39618 68.9367 1.87762 69.8641C16.6309 98.2846 31.4103 129.15 46.833 129.15C62.211 129.15 77.589 95.6101 92.967 74.6476C109.044 53.6852 124.422 45.3002 139.8 45.3002C155.178 45.3002 170.556 53.6852 186.633 49.4927C202.011 45.3002 217.389 28.5302 232.767 15.9527C248.844 3.37522 264.222 -5.00977 279.6 3.37522C294.978 11.7602 310.356 36.9152 326.433 53.6852C341.811 70.4551 357.189 78.8401 372.567 66.2626C388.644 53.6852 404.022 20.1452 419.4 20.1452C434.778 20.1452 450.156 53.6852 466.233 66.2626C481.611 78.8401 496.989 70.4551 512.367 78.8401C528.444 87.2251 543.822 112.38 559.2 103.995C574.578 95.6101 589.956 53.6852 606.033 53.6852C621.411 53.6852 636.789 95.6101 652.167 99.8026C667.579 103.822 682.697 73.6648 691.409 56.1869C692.135 54.7314 693.075 53.4048 694.205 52.235Z" fill="url(#paint0_linear_1_866)"/>
<defs>
<linearGradient id="paint0_linear_1_866" x1="349.5" y1="0" x2="349.5" y2="173" gradientUnits="userSpaceOnUse">
<stop offset="0.0978493" stop-color="#18B4F9" stop-opacity="0.12"/>
<stop offset="0.888841" stop-color="#18B4F9" stop-opacity="0"/>
</linearGradient>
</defs>
</svg>
